<svg width="96" height="45" viewBox="0 0 96 45" fill="none" xmlns="http://www.w3.org/2000/svg">
<ellipse cx="69.5" cy="22.5" rx="21.5" ry="22.5" fill="#4B8F8C"/>
<path d="M63.8926 31L62.3564 26.6387H56.3516L54.8154 31H52.0977L57.9414 15.2305H60.7988L66.6318 31H63.8926ZM61.6904 24.4258L60.1973 20.1289C60.14 19.9427 60.0576 19.6813 59.9502 19.3447C59.8428 19.001 59.7354 18.6536 59.6279 18.3027C59.5205 17.9447 59.431 17.6439 59.3594 17.4004C59.2878 17.694 59.1982 18.0234 59.0908 18.3887C58.9906 18.7467 58.8903 19.0833 58.79 19.3984C58.6969 19.7135 58.6253 19.957 58.5752 20.1289L57.0713 24.4258H61.6904ZM73.2705 15.2949C75.2972 15.2949 76.776 15.7103 77.707 16.541C78.638 17.3717 79.1035 18.5355 79.1035 20.0322C79.1035 20.7126 78.9961 21.3607 78.7812 21.9766C78.5736 22.5853 78.2298 23.126 77.75 23.5986C77.2702 24.0641 76.6364 24.4329 75.8486 24.7051C75.068 24.9772 74.1048 25.1133 72.959 25.1133H71.2832V31H68.7051V15.2949H73.2705ZM73.0986 17.4326H71.2832V22.9648H72.6904C73.4997 22.9648 74.1872 22.8717 74.7529 22.6855C75.3187 22.4922 75.7484 22.1878 76.042 21.7725C76.3356 21.3571 76.4824 20.8092 76.4824 20.1289C76.4824 19.2194 76.2067 18.5426 75.6553 18.0986C75.111 17.6546 74.2588 17.4326 73.0986 17.4326ZM82.2402 31V15.2949H84.8184V31H82.2402Z" fill="white"/>
<path d="M8.99316 31L4.4707 17.8838H4.37402C4.39551 18.1774 4.42057 18.5785 4.44922 19.0869C4.47786 19.5954 4.50293 20.1396 4.52441 20.7197C4.5459 21.2998 4.55664 21.8548 4.55664 22.3848V31H2.21484V15.2949H5.83496L10.1855 27.8311H10.25L14.751 15.2949H18.3604V31H15.9004V22.2559C15.9004 21.776 15.9076 21.2568 15.9219 20.6982C15.9434 20.1396 15.9648 19.6097 15.9863 19.1084C16.015 18.6071 16.0365 18.2061 16.0508 17.9053H15.9648L11.2705 31H8.99316ZM32.7656 25.0273C32.7656 26.0156 32.6367 26.8929 32.3789 27.6592C32.1211 28.4255 31.7451 29.0736 31.251 29.6035C30.7568 30.1263 30.1624 30.5273 29.4678 30.8066C28.7731 31.0788 27.9889 31.2148 27.1152 31.2148C26.2988 31.2148 25.5505 31.0788 24.8701 30.8066C24.1898 30.5273 23.599 30.1263 23.0977 29.6035C22.6035 29.0736 22.2204 28.4255 21.9482 27.6592C21.6761 26.8929 21.54 26.0156 21.54 25.0273C21.54 23.7168 21.7656 22.6068 22.2168 21.6973C22.6751 20.7806 23.3268 20.0824 24.1719 19.6025C25.0169 19.1227 26.0231 18.8828 27.1904 18.8828C28.2861 18.8828 29.2529 19.1227 30.0908 19.6025C30.9287 20.0824 31.584 20.7806 32.0566 21.6973C32.5293 22.6139 32.7656 23.724 32.7656 25.0273ZM24.1396 25.0273C24.1396 25.8939 24.2435 26.6351 24.4512 27.251C24.666 27.8669 24.9954 28.3395 25.4395 28.6689C25.8835 28.9912 26.4564 29.1523 27.1582 29.1523C27.86 29.1523 28.4329 28.9912 28.877 28.6689C29.321 28.3395 29.6468 27.8669 29.8545 27.251C30.0622 26.6351 30.166 25.8939 30.166 25.0273C30.166 24.1608 30.0622 23.4268 29.8545 22.8252C29.6468 22.2165 29.321 21.7546 28.877 21.4395C28.4329 21.1172 27.8564 20.9561 27.1475 20.9561C26.1019 20.9561 25.3392 21.307 24.8594 22.0088C24.3796 22.7106 24.1396 23.7168 24.1396 25.0273ZM41.8643 18.8828C43.2035 18.8828 44.2454 19.2301 44.9902 19.9248C45.7422 20.6123 46.1182 21.7188 46.1182 23.2441V31H43.5938V23.7168C43.5938 22.793 43.404 22.1019 43.0244 21.6436C42.6449 21.1781 42.0576 20.9453 41.2627 20.9453C40.1097 20.9453 39.3076 21.2998 38.8564 22.0088C38.4124 22.7178 38.1904 23.7454 38.1904 25.0918V31H35.666V19.1084H37.6318L37.9863 20.7197H38.126C38.3838 20.3044 38.7025 19.9642 39.082 19.6992C39.4688 19.4271 39.8984 19.223 40.3711 19.0869C40.8509 18.9508 41.3486 18.8828 41.8643 18.8828Z" fill="#4B8F8C"/>
</svg>
